<svg xmlns="http://www.w3.org/2000/svg" width="300" height="300" viewBox="0 0 300 300">
  <metadata><?xpacket begin="﻿" id="W5M0MpCehiHzreSzNTczkc9d"?>
<x:xmpmeta xmlns:x="adobe:ns:meta/" x:xmptk="Adobe XMP Core 5.6-c138 79.159824, 2016/09/14-01:09:01        ">
   <rdf:RDF xmlns:rdf="http://www.w3.org/1999/02/22-rdf-syntax-ns#">
      <rdf:Description rdf:about=""/>
   </rdf:RDF>
</x:xmpmeta>
                                                                                                    
                                                                                                    
                                                                                                    
                                                                                                    
                                                                                                    
                                                                                                    
                                                                                                    
                                                                                                    
                                                                                                    
                                                                                                    
                                                                                                    
                                                                                                    
                                                                                                    
                                                                                                    
                                                                                                    
                                                                                                    
                                                                                                    
                                                                                                    
                                                                                                    
                                                                                                    
                           
<?xpacket end="w"?></metadata>
<defs>
    <style>
      .cls-1 {
        fill: #ffe27d;
      }

      .cls-1, .cls-2, .cls-3, .cls-4, .cls-5, .cls-6, .cls-7 {
        fill-rule: evenodd;
      }

      .cls-2 {
        fill: #e0cb83;
      }

      .cls-3 {
        fill: #bea243;
      }

      .cls-4 {
        fill: #ffe795;
      }

      .cls-5 {
        fill: #ffda5a;
      }

      .cls-6 {
        fill: #00853c;
      }

      .cls-7 {
        fill: #fff;
        opacity: 0.67;
      }
    </style>
  </defs>
  <path id="Shape_1_copy" data-name="Shape 1 copy" class="cls-1" d="M149.794,285.517s101.189-74.26,119.491-103.96C301.9,128.637,287.8,55.328,287.393,55.328c-137.6,0-137.6-39.811-137.6-39.811v270Z"/>
  <path id="Shape_1_copy_3" data-name="Shape 1 copy 3" class="cls-2" d="M150.272,300S52.715,229.212,24,184.489C-12.763,127.247,3.556,44.237,3.977,44.234,144.549,43.2,150.272,0,150.272,0V300Z"/>
  <path id="Shape_1_copy_4" data-name="Shape 1 copy 4" class="cls-3" d="M149.246,300s95.536-66.133,126.928-115.511c36.465-57.358,20.378-140.252,19.958-140.255C155.986,43.2,149.246,0,149.246,0V300Z"/>
  <path id="Shape_1_copy_5" data-name="Shape 1 copy 5" class="cls-4" d="M149.227,285.517s-86.8-62.976-112.355-102.765C4.166,131.827,18.686,57.977,19.061,57.974c125.074-.92,130.166-39.353,130.166-39.353v266.9Z"/>
  <path id="Shape_1_copy_6" data-name="Shape 1 copy 6" class="cls-5" d="M149.349,285.517s86.424-62.976,111.9-102.765c32.607-50.925,18.132-124.775,17.758-124.778-124.695-.92-129.657-39.353-129.657-39.353v266.9Z"/>
  <path class="cls-6" d="M173.876,73.448v75.883l44.459,0.387s-52.036,57.3-68.791,76.835c-16.049-19.532-68.817-76.835-68.817-76.835l47.1-.387V73.448h46.044Z"/>
  <path class="cls-7" d="M72,97a41.192,41.192,0,0,0,8.472,13.314C86.261,116.107,95,120,95,120a41.189,41.189,0,0,0-13.313,8.472C75.893,134.261,72,143,72,143a40.439,40.439,0,0,0-8.472-13.314C57.82,123.974,49,120,49,120a39.071,39.071,0,0,0,13.313-8.472C67.858,105.988,72,97,72,97Z"/>
  <path id="Rectangle_1_copy" data-name="Rectangle 1 copy" class="cls-7" d="M38.5,87a18.8,18.8,0,0,0,3.868,6.078A25.615,25.615,0,0,0,49,97.5a18.8,18.8,0,0,0-6.078,3.868A25.62,25.62,0,0,0,38.5,108a18.464,18.464,0,0,0-3.868-6.078A26.073,26.073,0,0,0,28,97.5a17.835,17.835,0,0,0,6.078-3.868A27.051,27.051,0,0,0,38.5,87Z"/>
  <path id="Rectangle_1_copy_2" data-name="Rectangle 1 copy 2" class="cls-7" d="M63,80a12.535,12.535,0,0,0,2.579,4.052A17.078,17.078,0,0,0,70,87a12.533,12.533,0,0,0-4.052,2.579A17.075,17.075,0,0,0,63,94a12.308,12.308,0,0,0-2.578-4.052A17.379,17.379,0,0,0,56,87a11.889,11.889,0,0,0,4.052-2.579A18.035,18.035,0,0,0,63,80Z"/>
</svg>
