<svg xmlns="http://www.w3.org/2000/svg" width="300" height="300" viewBox="0 0 300 300">
  <metadata><?xpacket begin="﻿" id="W5M0MpCehiHzreSzNTczkc9d"?>
<x:xmpmeta xmlns:x="adobe:ns:meta/" x:xmptk="Adobe XMP Core 5.6-c138 79.159824, 2016/09/14-01:09:01        ">
   <rdf:RDF xmlns:rdf="http://www.w3.org/1999/02/22-rdf-syntax-ns#">
      <rdf:Description rdf:about=""/>
   </rdf:RDF>
</x:xmpmeta>
                                                                                                    
                                                                                                    
                                                                                                    
                                                                                                    
                                                                                                    
                                                                                                    
                                                                                                    
                                                                                                    
                                                                                                    
                                                                                                    
                                                                                                    
                                                                                                    
                                                                                                    
                                                                                                    
                                                                                                    
                                                                                                    
                                                                                                    
                                                                                                    
                                                                                                    
                                                                                                    
                           
<?xpacket end="w"?></metadata>
<defs>
    <style>
      .cls-1 {
        fill: #ffe27d;
      }

      .cls-1, .cls-2, .cls-6 {
        fill-rule: evenodd;
      }

      .cls-2 {
        fill: #f1c3a2;
      }

      .cls-3 {
        fill: #b9ebf7;
      }

      .cls-4 {
        fill: #97bac3;
      }

      .cls-5, .cls-6 {
        fill: #101e28;
      }
    </style>
  </defs>
  <path id="Rounded_Rectangle_2" data-name="Rounded Rectangle 2" class="cls-1" d="M81.343,104S72.706,0,142.464,0s64.443,102.905,64.443,102.905l-19.931-3.284S190.63,20.8,142.131,20.8,102.27,104,102.27,104H81.343Z"/>
  <path class="cls-2" d="M22,159c2,4.333-7.139,28.456,1.312,52.621,8.2,23.44,34.413,38.757,34.413,38.757s-9.251,31-4.44,36.542,37,16.241,46.624,12.18,14.432-24.361,14.432-24.361a130.364,130.364,0,0,0,28.862,4.429c14.675,0.533,32.192-2.214,32.192-2.214s5.551,24.73,21.092,22.146,28.33-4.659,34.412-13.288c7.239-10.27-2.22-26.576-2.22-26.576s14.8-6.194,24.422-16.61c9.807-10.621,14.431-25.469,14.431-25.469s24.422-2.214,28.862-6.644,5.181-45.769,0-50.937-29.972-9.966-29.972-9.966-1.669-19.652-11.1-32.113c-10.985-14.512-29.972-22.147-29.972-22.147s-5.215-10.116-2.22-21.039c3.8-13.865,17.762-27.167,12.211-28.791-19.761-5.781-53.284,36.542-53.284,36.542S121.217,75.708,89.049,86.5C41.967,102.306,40,131.667,35,134s-15,0-15-11,6.037-18.237,2-23c-2.874-3.391-22-4.28-22,23.034S20,154.667,22,159Z"/>
  <circle class="cls-3" cx="147.5" cy="184.5" r="34.5"/>
  <circle class="cls-4" cx="147" cy="185" r="12"/>
  <circle class="cls-5" cx="219" cy="136" r="8"/>
  <rect id="Rounded_Rectangle_3" data-name="Rounded Rectangle 3" class="cls-5" x="121" y="183" width="12" height="4" rx="2" ry="2"/>
  <rect id="Rounded_Rectangle_3_copy" data-name="Rounded Rectangle 3 copy" class="cls-5" x="161" y="183" width="12" height="4" rx="2" ry="2"/>
  <rect id="Rounded_Rectangle_3_copy_2" data-name="Rounded Rectangle 3 copy 2" class="cls-5" x="145" y="159" width="4" height="12" rx="2" ry="2"/>
  <rect id="Rounded_Rectangle_3_copy_3" data-name="Rounded Rectangle 3 copy 3" class="cls-5" x="145" y="200" width="4" height="12" rx="2" ry="2"/>
  <path id="Rounded_Rectangle_3_copy_4" data-name="Rounded Rectangle 3 copy 4" class="cls-6" d="M157.757,195.757a2,2,0,0,1,2.829,0l5.657,5.657a2,2,0,0,1-2.829,2.829l-5.657-5.657A2,2,0,0,1,157.757,195.757Z"/>
  <path id="Rounded_Rectangle_3_copy_5" data-name="Rounded Rectangle 3 copy 5" class="cls-6" d="M128.757,166.757a2,2,0,0,1,2.829,0l5.657,5.657a2,2,0,0,1-2.829,2.829l-5.657-5.657A2,2,0,0,1,128.757,166.757Z"/>
  <path id="Rounded_Rectangle_3_copy_6" data-name="Rounded Rectangle 3 copy 6" class="cls-6" d="M166.41,166.59a2.071,2.071,0,0,0-2.929,0l-5.859,5.858a2.071,2.071,0,1,0,2.93,2.929l5.858-5.858A2.071,2.071,0,0,0,166.41,166.59Z"/>
  <path id="Rounded_Rectangle_3_copy_7" data-name="Rounded Rectangle 3 copy 7" class="cls-6" d="M137.41,195.59a2.071,2.071,0,0,0-2.929,0l-5.859,5.858a2.071,2.071,0,1,0,2.93,2.929l5.858-5.858A2.071,2.071,0,0,0,137.41,195.59Z"/>
</svg>
