<svg xmlns="http://www.w3.org/2000/svg" width="300" height="300" viewBox="0 0 300 300">
  <metadata><?xpacket begin="﻿" id="W5M0MpCehiHzreSzNTczkc9d"?>
<x:xmpmeta xmlns:x="adobe:ns:meta/" x:xmptk="Adobe XMP Core 5.6-c138 79.159824, 2016/09/14-01:09:01        ">
   <rdf:RDF xmlns:rdf="http://www.w3.org/1999/02/22-rdf-syntax-ns#">
      <rdf:Description rdf:about=""/>
   </rdf:RDF>
</x:xmpmeta>
                                                                                                    
                                                                                                    
                                                                                                    
                                                                                                    
                                                                                                    
                                                                                                    
                                                                                                    
                                                                                                    
                                                                                                    
                                                                                                    
                                                                                                    
                                                                                                    
                                                                                                    
                                                                                                    
                                                                                                    
                                                                                                    
                                                                                                    
                                                                                                    
                                                                                                    
                                                                                                    
                           
<?xpacket end="w"?></metadata>
<defs>
    <style>
      .cls-1 {
        fill: #e5faff;
      }

      .cls-2 {
        fill: #ffc600;
      }

      .cls-2, .cls-4 {
        fill-rule: evenodd;
      }

      .cls-3 {
        fill: #97bac3;
      }

      .cls-4 {
        fill: #9d9b9b;
      }

      .cls-5 {
        fill: #00853c;
      }

      .cls-6 {
        font-size: 125px;
        fill: #fff;
        text-anchor: middle;
        font-family: "Open Sans";
        font-weight: 800;
      }
    </style>
  </defs>
  <rect id="Rounded_Rectangle_2" data-name="Rounded Rectangle 2" class="cls-1" y="61" width="239" height="239" rx="10" ry="10"/>
  <path id="Rounded_Rectangle_3" data-name="Rounded Rectangle 3" class="cls-2" d="M41,150H60a10,10,0,0,1,10,10v19a10,10,0,0,1-10,10H41a10,10,0,0,1-10-10V160A10,10,0,0,1,41,150Zm46,0h19a10,10,0,0,1,10,10v19a10,10,0,0,1-10,10H87a10,10,0,0,1-10-10V160A10,10,0,0,1,87,150Zm46,0h19a10,10,0,0,1,10,10v19a10,10,0,0,1-10,10H133a10,10,0,0,1-10-10V160A10,10,0,0,1,133,150Zm46,0h19a10,10,0,0,1,10,10v19a10,10,0,0,1-10,10H179a10,10,0,0,1-10-10V160A10,10,0,0,1,179,150ZM41,195H60a10,10,0,0,1,10,10v19a10,10,0,0,1-10,10H41a10,10,0,0,1-10-10V205A10,10,0,0,1,41,195Zm46,0h19a10,10,0,0,1,10,10v19a10,10,0,0,1-10,10H87a10,10,0,0,1-10-10V205A10,10,0,0,1,87,195Zm46,0h19a10,10,0,0,1,10,10v19a10,10,0,0,1-10,10H133a10,10,0,0,1-10-10V205A10,10,0,0,1,133,195Zm46,0h19a10,10,0,0,1,10,10v19a10,10,0,0,1-10,10H179a10,10,0,0,1-10-10V205A10,10,0,0,1,179,195ZM41,240H60a10,10,0,0,1,10,10v19a10,10,0,0,1-10,10H41a10,10,0,0,1-10-10V250A10,10,0,0,1,41,240Zm46,0h19a10,10,0,0,1,10,10v19a10,10,0,0,1-10,10H87a10,10,0,0,1-10-10V250A10,10,0,0,1,87,240Zm46,0h19a10,10,0,0,1,10,10v19a10,10,0,0,1-10,10H133a10,10,0,0,1-10-10V250A10,10,0,0,1,133,240Zm46,0h19a10,10,0,0,1,10,10v19a10,10,0,0,1-10,10H179a10,10,0,0,1-10-10V250A10,10,0,0,1,179,240Z"/>
  <path id="Rounded_Rectangle_5" data-name="Rounded Rectangle 5" class="cls-3" d="M10,61H229a10,10,0,0,1,10,10v60a0,0,0,0,1,0,0H0a0,0,0,0,1,0,0V71A10,10,0,0,1,10,61Z"/>
  <path id="Rounded_Rectangle_4" data-name="Rounded Rectangle 4" class="cls-4" d="M67,0h4A10,10,0,0,1,81,10V84A10,10,0,0,1,71,94H67A10,10,0,0,1,57,84V10A10,10,0,0,1,67,0Zm99,0h4a10,10,0,0,1,10,10V84a10,10,0,0,1-10,10h-4a10,10,0,0,1-10-10V10A10,10,0,0,1,166,0Z"/>
  <circle class="cls-5" cx="242.5" cy="242.5" r="58.5"/>
  <text id="_" data-name="$" class="cls-6" transform="translate(242.816 266.491) scale(0.548)"><tspan x="0">$</tspan></text>
</svg>
