<svg xmlns="http://www.w3.org/2000/svg" width="376" height="376" viewBox="0 0 376 376">
  <metadata><?xpacket begin="﻿" id="W5M0MpCehiHzreSzNTczkc9d"?>
<x:xmpmeta xmlns:x="adobe:ns:meta/" x:xmptk="Adobe XMP Core 5.6-c138 79.159824, 2016/09/14-01:09:01        ">
   <rdf:RDF xmlns:rdf="http://www.w3.org/1999/02/22-rdf-syntax-ns#">
      <rdf:Description rdf:about=""/>
   </rdf:RDF>
</x:xmpmeta>
                                                                                                    
                                                                                                    
                                                                                                    
                                                                                                    
                                                                                                    
                                                                                                    
                                                                                                    
                                                                                                    
                                                                                                    
                                                                                                    
                                                                                                    
                                                                                                    
                                                                                                    
                                                                                                    
                                                                                                    
                                                                                                    
                                                                                                    
                                                                                                    
                                                                                                    
                                                                                                    
                           
<?xpacket end="w"?></metadata>
<defs>
    <style>
      .cls-1 {
        fill: #ffc600;
      }

      .cls-1, .cls-2, .cls-3, .cls-4, .cls-5, .cls-6, .cls-7 {
        fill-rule: evenodd;
      }

      .cls-2 {
        fill: #ccc;
      }

      .cls-3 {
        fill: #b9ebf7;
      }

      .cls-4 {
        fill: #ffe27d;
      }

      .cls-5 {
        fill: #fff;
      }

      .cls-6 {
        fill: #101e28;
        stroke: #101e28;
        stroke-width: 5px;
      }

      .cls-7 {
        fill: #00853c;
      }
    </style>
  </defs>
  <path id="Rounded_Rectangle_4" data-name="Rounded Rectangle 4" class="cls-1" d="M198.883,18.454l134.993,93.766a10.305,10.305,0,0,1,10.305,10.3L346,376H98.926a10.3,10.3,0,0,1-10.3-10.3V108.1C88.621,102.407,193.192,18.454,198.883,18.454Z"/>
  <path class="cls-2" d="M132.782,86.558L190.3,48.1S353.249,157.557,355.516,157.557s15.457,2.2,15.457-9.617V128.849L190.3,6.089,105.11,63.975"/>
  <path class="cls-3" d="M190.64,74.106a31.93,31.93,0,1,1-31.931,31.931A31.93,31.93,0,0,1,190.64,74.106Zm-0.308,107.137H310.467a10,10,0,0,1,10,10v84.088a10,10,0,0,1-10,10H190.332a10,10,0,0,1-10-10V191.243A10,10,0,0,1,190.332,181.243Z"/>
  <path id="Rounded_Rectangle_2" data-name="Rounded Rectangle 2" class="cls-4" d="M38.851,129.733H144.561a10,10,0,0,1,10,10V325.8a10,10,0,0,1-10,10H38.851a10,10,0,0,1-10-10V139.733A10,10,0,0,1,38.851,129.733Z"/>
  <path id="Rounded_Rectangle_1" data-name="Rounded Rectangle 1" class="cls-4" d="M30.914,96.763s30.032-29.881,60.8-29.881c31.567,0,63.89,29.881,63.89,29.881a10.3,10.3,0,0,1,10.3,10.3v40.186a10.3,10.3,0,0,1-10.3,10.3H30.914a10.3,10.3,0,0,1-10.3-10.3V107.067A10.3,10.3,0,0,1,30.914,96.763Z"/>
  <path class="cls-2" d="M0,114.114v22.835c0,5.133,6.083,9.928,15.14,6.429L91.191,92.932l73.583,48.809s10.409,6.8,17.622-3.762c0,0.181-.014-23.865-0.014-23.865l-91.19-65.79Z"/>
  <path class="cls-5" d="M53.585,226.593s4.122-31.942,38.128-31.942,39.158,31.942,39.158,31.942v105.1H53.585v-105.1Z"/>
  <path id="Rounded_Rectangle_3" data-name="Rounded Rectangle 3" class="cls-5" d="M13.08,326.533H172.406a10,10,0,0,1,10,10V376H3.08V336.533A10,10,0,0,1,13.08,326.533Z"/>
  <path class="cls-5" d="M248.527,186.4h36.927L244.043,280.18H207.116Z"/>
  <path id="Shape_3_copy" data-name="Shape 3 copy" class="cls-5" d="M291.807,186.4l12.185,0.007-41.219,93.765-12.376.007Z"/>
  <path class="cls-6" d="M113.878,263.678a5.673,5.673,0,1,1-5.673,5.672A5.672,5.672,0,0,1,113.878,263.678Z"/>
  <path class="cls-7" d="M245.866,312.989a97.937,97.937,0,0,0,15.573,1.827c7.37,0.236,15.515-1.029,21.629,1.826,8.419,3.93,7.787,17.352,7.787,17.352s2.283-4.414,9.517-5.48c4.245-.625,9.929.841,14.708,0.914a75.709,75.709,0,0,0,12.978-.914s3.954,20.961-4.326,28.311c-5.667,5.03-15.057,3.618-22.5,3.653A36.723,36.723,0,0,0,289.99,362.3V376H284.8V346.779a34.563,34.563,0,0,0-11.248-2.74c-7.376-.528-16.818.522-21.629-3.653C241.573,331.405,245.866,312.989,245.866,312.989Z"/>
</svg>
