<svg xmlns="http://www.w3.org/2000/svg" width="300" height="300" viewBox="0 0 300 300">
  <metadata><?xpacket begin="﻿" id="W5M0MpCehiHzreSzNTczkc9d"?>
<x:xmpmeta xmlns:x="adobe:ns:meta/" x:xmptk="Adobe XMP Core 5.6-c138 79.159824, 2016/09/14-01:09:01        ">
   <rdf:RDF xmlns:rdf="http://www.w3.org/1999/02/22-rdf-syntax-ns#">
      <rdf:Description rdf:about=""/>
   </rdf:RDF>
</x:xmpmeta>
                                                                                                    
                                                                                                    
                                                                                                    
                                                                                                    
                                                                                                    
                                                                                                    
                                                                                                    
                                                                                                    
                                                                                                    
                                                                                                    
                                                                                                    
                                                                                                    
                                                                                                    
                                                                                                    
                                                                                                    
                                                                                                    
                                                                                                    
                                                                                                    
                                                                                                    
                                                                                                    
                           
<?xpacket end="w"?></metadata>
<defs>
    <style>
      .cls-1 {
        fill: #00853c;
      }

      .cls-1, .cls-3, .cls-4 {
        fill-rule: evenodd;
      }

      .cls-2 {
        font-size: 125px;
        fill: #fff;
        text-anchor: middle;
        font-family: "Open Sans";
        font-weight: 700;
        font-style: italic;
      }

      .cls-3 {
        fill: #ffe27d;
      }

      .cls-4 {
        fill: #464646;
      }
    </style>
  </defs>
  <path class="cls-1" d="M153,23c3.333,0,9.435-10.181,22-16,6.452-2.988,14.762,5.915,21,6,8.727,0.118,14.671-7.39,17-4,7.278,10.6-28.545,70.286-21,79,49.344,57,108,77.269,108,127,0,85.227-84.607,85-149.5,85S0,300.227,0,216c0-49.871,58.425-70.362,107-128,7.1-8.42-23.511-68.792-16-79,3.159-4.293,13.05,6.328,24,7,6.7,0.412,13.812-11.109,20-8C144.23,12.637,149.667,23,153,23Z"/>
  <text id="_" data-name="$" class="cls-2" x="148.333" y="230.667"><tspan x="148.333">$</tspan></text>
  <path id="Rounded_Rectangle_1" data-name="Rounded Rectangle 1" class="cls-3" d="M108,75h83c2.485,0,4,6.515,4,9l2,7c0,2.485-1.015,3-3.5,3A400,400,0,0,1,149,97a258.836,258.836,0,0,1-42.5-4c-2.485,0-4.5-.515-4.5-3a50.87,50.87,0,0,1,2-9C105.2,78,105.515,75,108,75Z"/>
  <path class="cls-4" d="M153,32a1.143,1.143,0,0,1,1-1,6.462,6.462,0,0,1,2.348.866,118.744,118.744,0,0,1,2.34,19.894A95.325,95.325,0,0,1,157,70s-1.012,2.094-2,2c-0.934-.089-1.848-2.366-1.848-2.366a98.019,98.019,0,0,0,1.926-18.38A109.841,109.841,0,0,0,153,32Zm29.227-6.563S184.064,23.758,185,24c0.964,0.249,1.028,2.42,1.028,2.42a139.031,139.031,0,0,1-4.114,23.114,111.7,111.7,0,0,1-8.073,19.894S171.98,70.4,171,70c-1.109-.453-1.352-2.286-1.352-2.286a114.841,114.841,0,0,0,8.387-19.971A128.691,128.691,0,0,0,182.227,25.437ZM120.718,25S118.906,23.76,118,24c-0.95.252-1,1.983-1,1.983A142.122,142.122,0,0,0,121.022,49.1a113.171,113.171,0,0,0,7.889,19.894S130.978,70.428,132,70s1.008-2.723,1.008-2.723a116.248,116.248,0,0,1-8.2-19.971A131.353,131.353,0,0,1,120.718,25Z"/>
</svg>
