<svg xmlns="http://www.w3.org/2000/svg" width="300" height="300" viewBox="0 0 300 300">
  <metadata><?xpacket begin="﻿" id="W5M0MpCehiHzreSzNTczkc9d"?>
<x:xmpmeta xmlns:x="adobe:ns:meta/" x:xmptk="Adobe XMP Core 5.6-c138 79.159824, 2016/09/14-01:09:01        ">
   <rdf:RDF xmlns:rdf="http://www.w3.org/1999/02/22-rdf-syntax-ns#">
      <rdf:Description rdf:about=""/>
   </rdf:RDF>
</x:xmpmeta>
                                                                                                    
                                                                                                    
                                                                                                    
                                                                                                    
                                                                                                    
                                                                                                    
                                                                                                    
                                                                                                    
                                                                                                    
                                                                                                    
                                                                                                    
                                                                                                    
                                                                                                    
                                                                                                    
                                                                                                    
                                                                                                    
                                                                                                    
                                                                                                    
                                                                                                    
                                                                                                    
                           
<?xpacket end="w"?></metadata>
<defs>
    <style>
      .cls-1 {
        fill: #ccc;
      }

      .cls-2 {
        fill: #101e28;
      }

      .cls-2, .cls-3, .cls-4, .cls-5, .cls-6, .cls-7 {
        fill-rule: evenodd;
      }

      .cls-3 {
        fill: #ffc600;
      }

      .cls-4 {
        fill: #fff;
      }

      .cls-5 {
        fill: #f6f6f6;
      }

      .cls-6 {
        fill: #a8edfe;
      }

      .cls-7 {
        fill: #e5faff;
      }
    </style>
  </defs>
  <rect class="cls-1" x="31" y="11" width="235" height="247" rx="5" ry="5"/>
  <path class="cls-2" d="M273.305,268.4v25.306c0,4.467-7.25,7.131-7.25,7.131l-43.5.158s-7.25-2.676-7.25-7.165V268.4h58Zm-188.494,0v25.306c0,4.467-7.25,7.131-7.25,7.131l-43.5.158s-7.25-2.676-7.25-7.165V268.4h58Z"/>
  <path class="cls-3" d="M238.019,122.756h37.244a14.209,14.209,0,0,0,10.493-5.116l0.234-30.7a14.3,14.3,0,0,0-10.545-5.116H235.021Zm-179.009,0H21.744a14.222,14.222,0,0,1-10.5-5.116l-0.233-30.7a14.309,14.309,0,0,1,10.551-5.116H62.01Z"/>
  <path class="cls-3" d="M22.352,250.422V159.67c0-16.019,31.369-25.57,31.369-25.57l188.215-.568s31.369,9.6,31.369,25.694v91.2H22.352Z"/>
  <path id="Rounded_Rectangle_1" data-name="Rounded Rectangle 1" class="cls-4" d="M55.781,175.1h7.875a10,10,0,0,1,10,10v29.465a10,10,0,0,1-10,10H55.781a10,10,0,0,1-10-10V185.1A10,10,0,0,1,55.781,175.1Zm178.438,0h7.906a10,10,0,0,1,10,10v29.465a10,10,0,0,1-10,10h-7.906a10,10,0,0,1-10-10V185.1A10,10,0,0,1,234.219,175.1Z"/>
  <path id="Rounded_Rectangle_2" data-name="Rounded Rectangle 2" class="cls-5" d="M29,235.8H270a10,10,0,0,1,10,10v14.853a10,10,0,0,1-10,10H29a10,10,0,0,1-10-10V245.8A10,10,0,0,1,29,235.8Z"/>
  <path class="cls-2" d="M93.734,236.99V188.124c0-8.626,13.942-13.769,13.942-13.769l83.651-.306s13.942,5.169,13.942,13.836V236.99H93.734Z"/>
  <path id="Rounded_Rectangle_3" data-name="Rounded Rectangle 3" class="cls-5" d="M73.134,0.364c6.8,0,11.49-1.79,11.49,2.725V59.763c0,4.514-5.512,8.174-12.311,8.174S60,64.277,60,59.763V3.089C60-1.426,66.334.364,73.134,0.364Z"/>
  <path id="Rounded_Rectangle_3_copy" data-name="Rounded Rectangle 3 copy" class="cls-5" d="M224.5,0.364c6.8,0,11.49-1.79,11.49,2.725V59.763c0,4.514-5.512,8.174-12.311,8.174s-12.311-3.66-12.311-8.174V3.089C211.368-1.426,217.7.364,224.5,0.364Z"/>
  <path class="cls-6" d="M244.306,138.662s-3.762-63.732-5.643-78.645S216.092,38,216.092,38l-134.3.489s-20.69,7.107-22.571,22.021-5.643,78.645-5.643,78.645Z"/>
  <path class="cls-7" d="M163.092,44.74h31.016l-34.782,87.669H128.31Z"/>
  <path id="Rectangle_2_copy" data-name="Rectangle 2 copy" class="cls-7" d="M197.668,44.74H207.5l-34.575,87.669H162.886Z"/>
</svg>
